<svg xmlns="http://www.w3.org/2000/svg" width="36" height="40" viewBox="0 0 36 40" fill="none">
<path fill-rule="evenodd" clip-rule="evenodd" d="M1.43051e-06 4L0 36C0 38.2091 1.79086 40 4 40H18.3431C18.3955 40 18.4478 39.999 18.5 39.9969V32C18.5 26.7533 22.7533 22.5 28 22.5H35.9969C35.999 22.4478 36 22.3955 36 22.3431V4C36 1.79086 34.2091 1.3113e-06 32 1.3113e-06L4 0C1.79086 -1.19209e-07 1.66893e-06 1.79086 1.43051e-06 4ZM28 25.5H34.5L21.5 38.5V32C21.5 28.4102 24.4102 25.5 28 25.5ZM19.7678 16.111C19.6828 16.196 19.5933 16.2735 19.5 16.3437L19.5 8.00012C19.5 7.17169 18.8284 6.50012 18 6.50012C17.1716 6.50012 16.5 7.17169 16.5 8.00012L16.5 16.3437C16.4067 16.2735 16.3172 16.196 16.2322 16.111L13.0607 12.9395C12.4749 12.3537 11.5251 12.3537 10.9393 12.9395C10.3536 13.5252 10.3536 14.475 10.9393 15.0608L14.1109 18.2324C16.2588 20.3802 19.7412 20.3802 21.8891 18.2323L25.0607 15.0608C25.6464 14.475 25.6464 13.5252 25.0607 12.9395C24.4749 12.3537 23.5251 12.3537 22.9393 12.9395L19.7678 16.111Z" fill="white"/>
</svg>