<svg xmlns="http://www.w3.org/2000/svg" viewBox="0 0 128 128" fill="none">
  <g clip-path="url(#clip0_957_3912)">
    <path fill-rule="evenodd" clip-rule="evenodd" d="M70 44H50C46.6863 44 44 46.6863 44 50V78C44 81.3137 46.6863 84 50 84H80C77.7909 84 76 82.2091 76 80V50C76 46.6863 73.3137 44 70 44ZM50.5 54C50.5 53.1716 51.1716 52.5 52 52.5H68C68.8284 52.5 69.5 53.1716 69.5 54C69.5 54.8284 68.8284 55.5 68 55.5H52C51.1716 55.5 50.5 54.8284 50.5 54ZM52 62.5C51.1716 62.5 50.5 63.1716 50.5 64C50.5 64.8284 51.1716 65.5 52 65.5H68C68.8284 65.5 69.5 64.8284 69.5 64C69.5 63.1716 68.8284 62.5 68 62.5H52ZM50.5 74C50.5 73.1716 51.1716 72.5 52 72.5H60C60.8284 72.5 61.5 73.1716 61.5 74C61.5 74.8284 60.8284 75.5 60 75.5H52C51.1716 75.5 50.5 74.8284 50.5 74Z" fill="white"/>
    <path d="M84 78.5V60C84 57.7909 82.2091 56 80 56H79V78.5C79 79.8807 80.1193 81 81.5 81C82.8807 81 84 79.8807 84 78.5Z" fill="white"/>
  </g>
</svg>