<svg xmlns="http://www.w3.org/2000/svg" viewBox="0 0 128 128" fill="none">
  <g clip-path="url(#clip0_957_3900)">
    <path d="M58.5833 48.2651C58.5833 47.5664 58.0237 47 57.3333 47C56.643 47 56.0833 47.5664 56.0833 48.2651V50.7952H55.6667C51.9848 50.7952 49 53.8159 49 57.5422V58.8072H79V57.5422C79 53.8159 76.0152 50.7952 72.3333 50.7952H71.9167V48.2651C71.9167 47.5664 71.357 47 70.6667 47C69.9763 47 69.4167 47.5664 69.4167 48.2651V50.7952H58.5833V48.2651Z" fill="white"/>
    <path fill-rule="evenodd" clip-rule="evenodd" d="M49 61.3373H79V75.253C79 78.9793 76.0152 82 72.3333 82H55.6667C51.9848 82 49 78.9793 49 75.253V61.3373ZM64 71.8795C64.9205 71.8795 65.6667 71.1243 65.6667 70.1928C65.6667 69.2612 64.9205 68.506 64 68.506C63.0795 68.506 62.3333 69.2612 62.3333 70.1928C62.3333 71.1243 63.0795 71.8795 64 71.8795ZM72.3333 70.1928C72.3333 71.1243 71.5871 71.8795 70.6667 71.8795C69.7462 71.8795 69 71.1243 69 70.1928C69 69.2612 69.7462 68.506 70.6667 68.506C71.5871 68.506 72.3333 69.2612 72.3333 70.1928ZM57.3333 71.8795C58.2538 71.8795 59 71.1243 59 70.1928C59 69.2612 58.2538 68.506 57.3333 68.506C56.4129 68.506 55.6667 69.2612 55.6667 70.1928C55.6667 71.1243 56.4129 71.8795 57.3333 71.8795Z" fill="white"/>
  </g>
</svg>