<svg xmlns="http://www.w3.org/2000/svg" viewBox="0 0 128 128" fill="none">
  <g clip-path="url(#clip0_957_3894)">
    <path d="M37.6864 55.5574L62.392 44.4547C63.7411 43.8484 65.2589 43.8484 66.608 44.4547L91.3136 55.5574C92.4379 56.0626 93 57.1742 93 58.2857V75.4285C93 76.612 92.043 77.5714 90.8625 77.5714C89.682 77.5714 88.725 76.612 88.725 75.4285V62.1773L66.608 72.1167C65.2589 72.723 63.7411 72.723 62.392 72.1167L37.6864 61.014C35.4379 60.0035 35.4379 56.5679 37.6864 55.5574Z" fill="white"/>
    <path d="M47.4 75.4286V70.0759L60.6433 76.0274C63.1049 77.1337 65.8951 77.1337 68.3567 76.0274L81.6 70.0759V75.4286C81.6 80.1624 77.772 84 73.05 84H55.95C51.228 84 47.4 80.1624 47.4 75.4286Z" fill="white"/>
  </g>
</svg>