<svg xmlns="http://www.w3.org/2000/svg" viewBox="0 0 128 128" fill="none">
  <g clip-path="url(#clip0_957_3942)">
    <path fill-rule="evenodd" clip-rule="evenodd" d="M81 74.1132V77.2222C81 79.3086 79.3086 81 77.2222 81C60.531 81 47 67.469 47 50.7778C47 48.6914 48.6914 47 50.7778 47H53.8868C55.4315 47 56.8206 47.9405 57.3943 49.3747L58.9312 53.217C59.6609 55.0413 58.8705 57.1203 57.1131 57.999L56.4444 58.3333C56.4444 58.3333 57.3889 63.0556 61.1667 66.8333C64.9444 70.6111 69.6667 71.5556 69.6667 71.5556L70.001 70.8869C70.8797 69.1295 72.9587 68.3391 74.783 69.0688L78.6253 70.6057C80.0595 71.1794 81 72.5685 81 74.1132ZM78.1667 50.7778C78.1667 52.8642 76.4753 54.5556 74.3889 54.5556C72.3025 54.5556 70.6111 52.8642 70.6111 50.7778C70.6111 48.6914 72.3025 47 74.3889 47C76.4753 47 78.1667 48.6914 78.1667 50.7778ZM71.1773 56.4445H77.5996C79.4773 56.4445 80.9996 57.9667 80.9996 59.8445C80.9996 61.0963 79.9847 62.1111 78.7329 62.1111H70.044C68.7922 62.1111 67.7773 61.0963 67.7773 59.8445C67.7773 57.9667 69.2996 56.4445 71.1773 56.4445Z" fill="white"/>
  </g>
</svg>