<svg xmlns="http://www.w3.org/2000/svg" viewBox="0 0 128 128" fill="none">
  <g clip-path="url(#clip0_957_3906)">
    <path d="M42 51.5V76.5C42 76.9932 42.0458 77.4754 42.1333 77.942L48.4332 63.6113C50.4839 58.8347 55.0983 55.6667 60.2862 55.6667H80.4553C80.0564 51.9167 76.9964 49 73.2808 49H65.8282C64.5439 49 63.2828 48.644 62.1751 47.9687L57.3566 45.0313C56.2489 44.356 54.9878 44 53.7035 44H49.2186C45.2319 44 42 47.3579 42 51.5Z" fill="white"/>
    <path d="M60.2862 59H81.6247C85.3654 59 87.6759 63.2399 85.7514 66.5725L78.4909 79.145C76.7514 82.157 73.6185 84 70.2376 84H49.2188C47.2123 84 45.3971 83.1495 44.0888 81.7765L51.4909 64.9386C53.0357 61.3273 56.4825 59 60.2862 59Z" fill="white"/>
  </g>
</svg>