<svg width="34" height="34" fill="none" xmlns="http://www.w3.org/2000/svg"><g clip-path="url(#clip0_731_1059)"><path d="M17 34c9.389 0 17-7.611 17-17S26.389 0 17 0 0 7.611 0 17s7.611 17 17 17z" fill="url(#paint0_linear_731_1059)"/><path fill-rule="evenodd" clip-rule="evenodd" d="M17.395 11.542a1.719 1.719 0 011.082 2.204c-.324.9-1.333 1.373-2.255 1.056-.92-.316-1.405-1.303-1.08-2.204.324-.9 1.334-1.373 2.253-1.056zm2.04 6.186c.257-.15.544-.3.847-.317.312-.016.728.153.936.377.446.476.478 1.26-.014 1.714-.076.07-.174.141-.27.204-.886.508-1.39.753-2.4.968.137.106.271.233.387.342.681.663 1.375 1.31 2.054 1.971.446.437.467 1.058.143 1.562-.349.54-1.07.675-1.633.365a2.145 2.145 0 01-.44-.34c-.728-.704-1.458-1.414-2.197-2.105-.1.093-.261.257-.388.382-.645.63-1.274 1.282-1.925 1.91-.532.532-1.327.477-1.844-.06a1.156 1.156 0 01-.088-1.492c.194-.238.418-.448.64-.661.5-.504 1.338-1.29 1.79-1.805-.822-.263-1.822-.568-2.513-1.06-.59-.42-.67-1.144-.28-1.717.148-.218.36-.375.693-.456.377-.09.747-.009 1.075.174.982.547 1.844.822 3.14.732.8-.08 1.595-.284 2.288-.688zm-1.208-8.49c2.223.765 3.39 3.147 2.607 5.32-.781 2.171-3.219 3.313-5.442 2.548-2.223-.765-3.39-3.147-2.607-5.32.781-2.172 3.22-3.313 5.442-2.548z" fill="#FEFEFE"/></g></svg>