<svg xmlns="http://www.w3.org/2000/svg" width="128" height="128" viewBox="0 0 128 128" fill="none">
  <g clip-path="url(#clip0_957_3931)">
    <path d="M65.9379 81.1862H72.1264C75.7144 81.1862 78.8419 78.7443 79.7121 75.2634L82.8813 62.5865C83.4982 60.119 81.6319 57.7287 79.0885 57.7287H69.4349L71.9895 53.3494C73.8899 50.0914 71.5399 46 67.7682 46H65.5253L57.9637 59.2328C57.7949 59.5282 57.7061 59.8624 57.7061 60.2026V76.2304C57.7061 76.884 58.0328 77.4944 58.5766 77.8569L61.6007 79.873C62.8851 80.7292 64.3943 81.1862 65.9379 81.1862Z" fill="white"/>
    <path d="M48.9096 57.7288H50.8644C53.0236 57.7288 54.7739 59.4792 54.7739 61.6384V75.3219C54.7739 77.4811 53.0236 79.2314 50.8644 79.2314H48.9096C46.7504 79.2314 45 77.4811 45 75.3219V61.6384C45 59.4792 46.7504 57.7288 48.9096 57.7288Z" fill="white"/>
  </g>
</svg>