<svg xmlns="http://www.w3.org/2000/svg" width="16" height="16" fill="none"><g clip-path="url(#clip0_731_1064)"><path fill-rule="evenodd" clip-rule="evenodd" d="M11.791 2.023c.39.39.634.885.745 1.441.556.111 1.05.354 1.441.745a6.908 6.908 0 01-9.769 9.768c-.39-.39-.633-.885-.744-1.441-.556-.111-1.05-.354-1.441-.745a6.907 6.907 0 019.768-9.768zM1.933 8.38c-.17.65-.21 1.239-.127 1.754.085.523.293.944.611 1.263.257.256.586.443.979.55-.068-1.749.951-3.956 2.773-5.778 1.822-1.822 4.03-2.842 5.778-2.773a2.143 2.143 0 00-.55-.978c-.42-.42-1.035-.653-1.802-.653-.76 0-1.64.227-2.542.669-.933.456-1.86 1.128-2.675 1.944-1.227 1.227-2.092 2.65-2.445 4.002z" fill="#fff"/></g><defs><clipPath id="clip0_731_1064"><path fill="#fff" d="M0 0h16v16H0z"/></clipPath></defs></svg>