<svg xmlns="http://www.w3.org/2000/svg" width="34" height="34" viewBox="0 0 34 34" fill="none">
    <g clip-path="url(#clip0_957_4452)">
        <path d="M23.8949 10.5595C23.7336 10.1975 23.3947 10 22.9405 10C22.6114 10 22.3217 10.1053 22.2855 10.1185C22.1901 10.1514 12.626 13.8078 8.703 15.4172C8.35743 15.5587 8.13692 15.7562 8.04148 16.0063C7.89338 16.3947 8.16983 16.7929 8.42983 16.9081C9.40401 17.3359 11.4314 17.9316 12.0665 18.116C12.2772 18.8137 13.0078 21.2425 13.3501 22.2825C13.439 22.5524 13.7022 22.7137 14.0511 22.7137C14.1038 22.7137 14.1367 22.7104 14.1367 22.7104C14.2321 22.7005 14.3111 22.6511 14.3703 22.5853C14.4197 22.5294 14.4559 22.457 14.4592 22.378L14.6633 19.4456C15.0483 19.7319 15.6045 20.1532 16.2233 20.6139C17.4443 21.5256 18.899 22.6084 19.7119 23.1975C20.0015 23.4048 20.2812 23.5134 20.5445 23.5134C21.1336 23.5134 21.4726 23.0099 21.5845 22.5787C22.2592 19.9557 23.2466 14.996 23.839 12.0339L23.9673 11.3856C24.043 10.9709 23.9739 10.7339 23.8949 10.5595ZM13.9886 18.7314L13.8076 21.338C13.3633 19.9228 12.7116 17.7473 12.705 17.7243C12.7017 17.7177 12.6952 17.7111 12.6919 17.7046L12.6886 17.6881L20.1693 12.8172C20.1693 12.8172 20.6795 12.4684 20.8736 12.4256C21.1336 12.3696 21.1962 12.4716 21.1501 12.5342C20.9691 12.7777 20.1101 13.5182 20.1101 13.5182L14.1498 18.4549V18.4582C14.0577 18.5175 13.9952 18.6195 13.9886 18.7314Z" fill="white"/>
    </g>
</svg>