<svg xmlns="http://www.w3.org/2000/svg" width="34" height="34" fill="none"><g clip-path="url(#clip0_731_1056)"><path d="M17 34c9.389 0 17-7.611 17-17S26.389 0 17 0 0 7.611 0 17s7.611 17 17 17z" fill="url(#paint0_linear_731_1056)"/><path d="M17.774 22.313c-5.818 0-9.136-3.989-9.274-10.625h2.914c.096 4.87 2.244 6.934 3.946 7.36v-7.36h2.744v4.2c1.68-.18 3.446-2.095 4.041-4.2h2.744c-.457 2.595-2.371 4.509-3.733 5.296 1.362.638 3.542 2.308 4.372 5.328h-3.021c-.649-2.02-2.265-3.584-4.403-3.796v3.797h-.33z" fill="#fff"/></g></svg>